<svg width="345" height="130" viewBox="0 0 345 130" fill="none" xmlns="http://www.w3.org/2000/svg">
<path d="M0.920001 106.6V80.86L59.06 1.12H92.18V79.78H107.48V106.6H92.18V130H61.04V106.6H0.920001ZM63.56 36.76L32.24 79.78H63.56V36.76ZM121.498 65.02C121.498 84.94 125.518 100.72 133.558 112.36C141.598 124 154.438 129.82 172.078 129.82C189.598 129.82 202.378 124 210.418 112.36C218.578 100.72 222.658 84.94 222.658 65.02C222.658 45.22 218.578 29.56 210.418 18.04C202.378 6.39999 189.598 0.579993 172.078 0.579993C154.438 0.579993 141.598 6.39999 133.558 18.04C125.518 29.56 121.498 45.22 121.498 65.02ZM192.058 65.02C192.058 76.42 190.678 85.24 187.918 91.48C185.278 97.6 179.998 100.66 172.078 100.66C164.038 100.66 158.638 97.6 155.878 91.48C153.118 85.24 151.738 76.42 151.738 65.02C151.738 53.74 153.118 45.04 155.878 38.92C158.638 32.8 164.038 29.74 172.078 29.74C179.998 29.74 185.278 32.8 187.918 38.92C190.678 44.92 192.058 53.62 192.058 65.02ZM237.697 106.6V80.86L295.837 1.12H328.957V79.78H344.257V106.6H328.957V130H297.817V106.6H237.697ZM300.337 36.76L269.017 79.78H300.337V36.76Z" fill="#282828"/>
</svg>
