<svg width="44" height="30" viewBox="0 0 44 30" fill="none" xmlns="http://www.w3.org/2000/svg">
<g clip-path="url(#clip0_275_24503)">
<path d="M43.5741 15.7213C43.565 15.6953 43.5549 15.6682 43.5458 15.6423C43.5266 15.5915 43.5086 15.5441 43.4995 15.4978C43.1225 13.618 42.2667 12.1819 40.8802 11.1071C40.3846 10.7221 39.8867 10.3213 39.4058 9.93289C39.2477 9.80531 39.0908 9.67886 38.9327 9.55128C38.8898 9.51741 38.8492 9.47902 38.804 9.43612C38.9632 9.40338 39.119 9.3729 39.2737 9.34129C39.7874 9.23742 40.2728 9.13919 40.7606 9.03532C41.3443 8.91 41.543 8.67178 41.5475 8.09035C41.552 7.501 41.552 6.91731 41.5475 6.35732C41.5419 5.71152 41.254 5.4225 40.6138 5.41911C39.6259 5.4146 38.5861 5.4146 37.5237 5.41911C36.8802 5.42137 36.59 5.70814 36.581 6.34829C36.5787 6.55264 36.5787 6.75699 36.5799 6.96021V6.9794C36.4049 6.80666 36.2829 6.64521 36.196 6.47248C35.7071 5.5004 35.225 4.50462 34.7588 3.54157L34.5838 3.18029C33.5711 1.08937 31.9137 0.0247114 29.6579 0.0156793C24.0479 -0.00690087 18.8985 -0.00577186 13.9162 0.0168083C11.648 0.0280984 9.99285 1.09501 8.99594 3.18819C8.83675 3.52238 8.6832 3.8656 8.5353 4.19753C8.32305 4.67284 8.10289 5.16508 7.86354 5.63475C7.67387 6.00732 7.44919 6.35958 7.20985 6.73328C7.14323 6.83827 7.07549 6.94327 7.00775 7.05166C7.00662 6.96698 7.00549 6.88231 7.00437 6.79876C7.00324 6.64634 7.00098 6.49506 6.99872 6.34264C6.98856 5.71717 6.70066 5.42363 6.09326 5.42024C4.95635 5.41347 3.91766 5.41347 2.91849 5.42024C2.33818 5.42363 2.04012 5.72733 2.03334 6.32006C2.0277 6.83715 2.0277 7.38471 2.03334 8.09599C2.03786 8.67517 2.23769 8.91113 2.82591 9.03419C3.3159 9.13581 3.80589 9.23629 4.32523 9.34241L4.79264 9.43838C4.59958 9.59305 4.41216 9.74547 4.22701 9.8945C3.69186 10.3269 3.18606 10.7356 2.66785 11.1319C1.69351 11.8782 0.966431 12.8649 0.504667 14.0673C0.361283 14.4399 0.254027 14.8305 0.151287 15.2087C0.103869 15.3815 0.0564504 15.5542 0.00564504 15.7247L0 28.2849L0.00677405 28.3041C0.36467 29.2513 0.905464 29.7684 1.70819 29.931C1.92496 29.975 2.1485 29.9807 2.31785 29.9818C3.9933 29.9852 5.70262 29.9863 7.39726 29.9829C8.81642 29.9807 9.70269 29.1012 9.70834 27.6865C9.70947 27.4291 9.70947 27.1717 9.70834 26.9053V26.6332H33.8691V26.9109C33.868 27.1977 33.868 27.4844 33.8702 27.7723C33.8827 29.0684 34.7983 29.9773 36.0955 29.9818C36.6408 29.9841 37.1963 29.9796 37.7326 29.9762C38.7634 29.9683 39.8291 29.9604 40.8746 29.9976C40.9356 29.9999 40.9954 30.001 41.0552 30.001C42.3638 30.001 43.1665 29.458 43.5729 28.303L43.5797 28.2849V15.7382L43.5741 15.7213ZM12.803 23.901C15.4889 23.8965 18.1759 23.8976 20.8618 23.8987H23.8898H25.7515C27.3028 23.8987 28.8552 23.8987 30.4064 23.8987C31.3119 23.8987 32.0514 24.251 32.7175 25.0006H10.528C11.1693 24.2623 11.9156 23.9021 12.803 23.901ZM9.08174 6.74682C9.23529 6.41715 9.38431 6.0841 9.52883 5.7612C9.92172 4.8817 10.2932 4.04962 10.7662 3.25819C11.4052 2.18676 12.4789 1.59516 13.7886 1.5929C19.2135 1.58274 24.5175 1.57484 29.7866 1.59742C31.2408 1.60419 32.3675 2.31208 33.0449 3.64431C33.4164 4.37478 33.7461 5.10751 34.0938 5.88313C34.2225 6.1699 34.3523 6.45893 34.4844 6.74795H9.08174V6.74682ZM39.9703 7.22327C39.9917 7.38133 39.9793 7.48407 39.9285 7.54842C39.8788 7.61277 39.7795 7.65229 39.6271 7.66922C39.2658 7.70987 38.9158 7.78551 38.5455 7.8668C38.4303 7.89164 38.3129 7.91761 38.1943 7.94132V7.01666H39.9646C39.9624 7.08779 39.9601 7.15553 39.9703 7.22327ZM35.4497 26.929C35.4509 26.8262 35.4509 26.7224 35.452 26.6174C35.4655 26.6162 35.4791 26.6162 35.4926 26.6151C35.5886 26.6095 35.6789 26.6038 35.767 26.6038C36.0933 26.6038 36.4207 26.6016 36.747 26.6004C37.5756 26.5959 38.4314 26.5925 39.2725 26.6083C40.169 26.6264 41.1151 26.5925 41.998 26.0156C41.998 26.1658 41.9991 26.3125 41.9991 26.4559C42.0014 26.9233 42.0025 27.3636 41.9946 27.7994C41.9867 28.1856 41.7722 28.3989 41.3906 28.4012C39.6598 28.4091 37.8681 28.4091 36.065 28.4012C35.6778 28.4001 35.4667 28.1935 35.4542 27.804C35.4463 27.5172 35.4475 27.2315 35.4497 26.929ZM1.58174 26.465C1.58287 26.3171 1.584 26.1658 1.58513 26.0111C2.48382 26.6287 3.46493 26.6174 4.41668 26.6072L4.63232 26.6049C5.45198 26.5993 6.25583 26.6004 7.10711 26.6016C7.44016 26.6016 7.77661 26.6027 8.11644 26.6027C8.11757 26.7167 8.11983 26.8307 8.12208 26.9436C8.12886 27.2925 8.13676 27.6222 8.10515 27.9519C8.07918 28.2262 7.8737 28.3978 7.56774 28.3989C5.64052 28.4068 3.87024 28.4068 2.15641 28.3989C1.81883 28.3978 1.60771 28.207 1.59416 27.8886C1.57271 27.428 1.57722 26.9595 1.58174 26.465ZM3.9154 25.0243L3.6275 25.0232C2.39011 25.0198 1.58626 24.225 1.58174 22.9978C1.57835 22.2605 1.57948 21.5244 1.58061 20.7714V19.8569H2.03334C2.03334 19.8975 2.03334 19.937 2.03221 19.9765C2.03109 20.1436 2.02996 20.3006 2.03447 20.462C2.07286 21.9749 3.28767 23.1852 4.79941 23.2179C5.37295 23.2303 5.95665 23.2258 6.52115 23.2224L6.75034 23.2213C7.31258 23.2179 7.66709 22.9199 7.67387 22.4446C7.67725 22.2312 7.60726 22.046 7.4729 21.9083C7.30581 21.7378 7.0484 21.6475 6.72776 21.6452C6.37777 21.643 6.02777 21.643 5.67778 21.6441C5.4915 21.6441 5.30521 21.6452 5.11892 21.6441C4.5849 21.6441 4.20894 21.5267 3.96846 21.2851C3.72798 21.0435 3.6117 20.6641 3.61395 20.1267C3.61395 20.0544 3.61395 19.9811 3.61395 19.8998V19.8636C4.67748 19.7857 5.70036 19.7948 6.55841 20.5196C6.98066 20.8764 7.45371 20.8741 7.76306 20.5139C7.90306 20.3514 7.96854 20.1606 7.95273 19.9619C7.93354 19.7293 7.80483 19.508 7.58129 19.3217C6.75598 18.6342 5.82004 18.2796 4.79941 18.2661C4.04298 18.2559 3.27299 18.2582 2.52785 18.2605C2.23318 18.2616 1.93964 18.2627 1.64384 18.2627V15.8184C2.32011 16.3648 3.05058 16.4744 3.92556 16.4653C5.69133 16.445 7.15565 16.4461 8.53643 16.4698C9.08964 16.4777 9.47576 16.3152 9.77382 15.9381C9.88447 15.797 9.99962 15.6592 10.1272 15.5057C10.1633 15.4616 10.2006 15.4176 10.239 15.3713C10.3056 15.4402 10.3688 15.5045 10.4286 15.5655C10.6036 15.7439 10.7549 15.8986 10.8949 16.0589C11.1399 16.34 11.4414 16.4653 11.8693 16.4653C11.8726 16.4653 11.876 16.4653 11.8794 16.4653C13.0468 16.4597 14.2345 16.4597 15.3827 16.4597C16.593 16.4597 17.8451 16.4597 19.0768 16.4529C19.3467 16.454 19.5149 16.524 19.6922 16.7115C20.1133 17.1563 20.5581 17.5921 20.9883 18.0143L21.1283 18.1521C21.5923 18.6082 21.9897 18.6093 22.4537 18.1543L22.6332 17.9793C23.0318 17.5898 23.4439 17.1879 23.8311 16.7724C24.049 16.5376 24.2635 16.4461 24.5898 16.4506C25.5912 16.4586 26.6096 16.4574 27.5952 16.4574C28.8574 16.4563 30.1637 16.4552 31.4474 16.4732C32.1112 16.4789 32.5572 16.2892 32.9016 15.8466C32.9907 15.7326 33.0935 15.6265 33.2019 15.5136C33.229 15.4853 33.2561 15.4571 33.2843 15.4278C33.3057 15.447 33.3272 15.465 33.3475 15.482C33.4277 15.5497 33.4909 15.6039 33.5349 15.6649C34.0848 16.4303 34.8581 16.5003 35.4723 16.4766C36.4534 16.4371 37.4548 16.4461 38.4224 16.454C38.8345 16.4574 39.2454 16.4608 39.6575 16.4608C40.7978 16.4608 41.0699 16.3998 41.9393 15.8399V18.2627C41.657 18.2627 41.3714 18.2616 41.0857 18.2616C40.3474 18.2604 39.583 18.2593 38.8277 18.2638C37.8105 18.2706 36.8711 18.6172 36.0368 19.2946C35.7918 19.4933 35.6507 19.7236 35.6304 19.9619C35.6134 20.1583 35.6789 20.3491 35.8223 20.5151C36.1328 20.8741 36.5821 20.8775 37.0258 20.5241C37.6231 20.0465 38.2587 19.8241 38.9835 19.8399C39.2263 19.8456 39.4712 19.8444 39.7083 19.8422C39.784 19.8422 39.8596 19.8411 39.9353 19.8411C40.038 20.4112 39.9364 20.9012 39.6462 21.2286C39.3629 21.5481 38.9192 21.6983 38.3908 21.6509C38.0555 21.6204 37.7145 21.6283 37.3848 21.6362C37.2369 21.6396 37.089 21.643 36.9411 21.643L36.8678 21.6418C36.791 21.6407 36.712 21.6396 36.6318 21.6497C36.2016 21.7005 35.8923 22.0438 35.9126 22.4468C35.9352 22.8939 36.2129 23.192 36.6194 23.2044L36.9197 23.2145C37.6468 23.2394 38.3998 23.2642 39.1303 23.1761C40.5348 23.0068 41.5306 21.8552 41.5509 20.3751C41.5531 20.243 41.552 20.1109 41.552 19.9698V19.8704H41.9822C41.9833 20.2023 41.9878 20.5388 41.9935 20.8639C42.0059 21.7005 42.0194 22.5665 41.963 23.4099C41.9043 24.2826 41.0981 25.0029 40.1678 25.0153C38.4755 25.0379 36.7729 25.0277 35.1754 25.0142C35.076 25.013 34.9326 24.9419 34.8243 24.8414C34.5476 24.5829 34.2744 24.3085 34.0114 24.0421C33.8827 23.9123 33.754 23.7824 33.6241 23.6537C32.7299 22.7674 31.6416 22.3181 30.3895 22.3181H12.8639C11.613 22.3181 10.5246 22.7674 9.63044 23.6537C9.51189 23.7723 9.39335 23.8919 9.27593 24.0116C9.014 24.2792 8.74191 24.5547 8.45853 24.8053C8.32305 24.925 8.11418 25.0097 7.95047 25.0119C6.60131 25.0322 5.23634 25.0289 3.9154 25.0243ZM35.1652 8.33986C35.1652 8.33986 35.1663 8.33986 35.1675 8.33986C35.4881 8.33986 35.6575 8.45614 35.8584 8.67178C36.3924 9.24306 36.9615 9.79741 37.5113 10.3348C37.6976 10.5166 37.8827 10.6972 38.0679 10.8801C38.1345 10.9456 38.2045 11.0032 38.2858 11.0687C38.2734 11.0743 38.261 11.08 38.2485 11.0856C38.1187 11.1421 38.0013 11.194 37.8827 11.2414C37.5169 11.387 37.15 11.5316 36.7831 11.6761C35.9194 12.0159 35.0263 12.367 34.1581 12.7385C33.8104 12.8875 33.4502 13.1257 33.0574 13.4678C32.8654 13.6349 32.6893 13.8325 32.5199 14.0233C32.2185 14.362 31.934 14.6826 31.5784 14.8305C31.199 14.9886 30.7135 14.9513 30.245 14.9163C30.0361 14.9005 29.8205 14.8847 29.6139 14.8836C29.1092 14.8836 28.6057 14.8836 28.101 14.8825C26.7654 14.8802 25.3846 14.8779 24.0264 14.8994C23.7408 14.9039 23.3851 15.0496 23.1413 15.2607C22.7935 15.5621 22.4774 15.8929 22.1421 16.2429C22.0292 16.3615 21.9129 16.4823 21.7944 16.6031C21.6792 16.4868 21.5641 16.3716 21.4512 16.2587C21.1192 15.9257 20.8054 15.6118 20.4971 15.2844C20.2341 15.0033 19.9338 14.8779 19.5251 14.8779C19.5217 14.8779 19.5183 14.8779 19.516 14.8779C16.8471 14.8904 14.4807 14.8881 12.2813 14.8723C12.0872 14.8712 11.8523 14.7752 11.7564 14.6589C10.7527 13.4385 9.43851 12.5815 7.73935 12.0385C7.13646 11.8466 6.5426 11.5948 5.96794 11.3509C5.76472 11.2651 5.55472 11.1759 5.34698 11.0912L5.67101 10.7796C6.20277 10.2682 6.72324 9.76692 7.24372 9.26451L7.26517 9.24419C7.32275 9.18887 7.38823 9.12564 7.43226 9.04661C7.75741 8.44598 8.24515 8.32857 8.97336 8.33082C17.6916 8.35792 26.3375 8.35115 35.1652 8.33986ZM39.9172 12.3783C40.379 12.8073 40.7493 13.2048 41.0507 13.5931C41.1941 13.7783 41.2472 13.9917 41.2009 14.1949C41.1512 14.4128 40.9943 14.5957 40.7617 14.7108C40.5551 14.8125 40.292 14.8723 40.0403 14.8757L39.6079 14.8802C38.1695 14.8949 36.6815 14.9096 35.2228 14.8587C35.0365 14.852 34.8299 14.6962 34.6312 14.546C34.5544 14.4873 34.4754 14.4275 34.3952 14.3744L34.4065 14.3349L35.2081 14.012C35.9002 13.7331 36.5934 13.4531 37.2866 13.1754C37.4368 13.1156 37.5869 13.0546 37.7371 12.9936C38.3072 12.7633 38.8966 12.5251 39.4848 12.3174C39.6067 12.2722 39.8382 12.3049 39.9172 12.3783ZM3.97637 12.2564C5.48585 12.857 7.01791 13.4768 8.49917 14.0775L9.12464 14.3315C8.83675 14.7007 8.53191 14.922 7.99112 14.9017C7.37016 14.8791 6.74244 14.8734 6.11922 14.8734C5.74891 14.8734 5.37972 14.8757 5.01618 14.8779C4.51942 14.8813 4.00685 14.8836 3.50105 14.8813C2.90494 14.8779 2.52898 14.6431 2.38334 14.1813C2.34382 14.0549 2.35059 13.8754 2.39688 13.8189C2.8722 13.2431 3.37573 12.7023 3.76185 12.2948C3.79347 12.262 3.92105 12.2349 3.97637 12.2564ZM3.63541 7.59019V7.01553H5.38988V7.93454L3.63541 7.59019Z" fill="#F36F20"/>
</g>
<defs>
<clipPath id="clip0_275_24503">
<rect width="43.5797" height="30" fill="white"/>
</clipPath>
</defs>
</svg>
