<svg width="36" height="36" viewBox="0 0 36 36" fill="none" xmlns="http://www.w3.org/2000/svg">
<g clip-path="url(#clip0_275_24481)">
<path d="M35.7036 3.19581C34.9491 1.16062 32.9686 -0.0928443 30.8129 0.0149805C28.8458 0.136283 27.0539 1.53801 26.4746 3.4519C25.8817 5.39274 26.5554 7.5088 28.1452 8.72183C28.4416 8.93748 28.5629 9.19357 28.5629 9.55748C28.5494 10.5549 28.5494 11.5522 28.5494 12.5631V13.8705C28.5494 14.8678 27.9701 15.4339 26.9731 15.4339H25.6527C24.6287 15.4339 23.6048 15.4339 22.5808 15.4339C22.2305 15.4339 22.0284 15.2722 21.8802 15.097C21.5838 14.76 21.247 14.4231 20.8967 14.1131C20.6677 13.9244 20.5734 13.7087 20.5734 13.4392C20.5868 12.1183 20.5868 10.7975 20.5734 9.47661C20.5734 9.16661 20.6811 8.96444 20.9237 8.76227C22.5404 7.46837 23.1602 5.83752 22.756 3.91015C22.3383 1.88844 21.0853 0.621495 19.0374 0.136283C16.8683 -0.375884 14.5913 0.72932 13.6078 2.76451C12.6377 4.78623 13.1901 7.2662 14.9416 8.65444C15.2919 8.924 15.4266 9.22052 15.4132 9.6653C15.3862 10.9053 15.3997 12.1722 15.4132 13.3987C15.4132 13.6953 15.3189 13.9109 15.0898 14.1131C14.8743 14.3018 14.6722 14.5174 14.4701 14.7196C14.3353 14.8678 14.1871 15.0161 14.0389 15.1509C13.9581 15.2318 13.7425 15.407 13.5 15.407C11.8832 15.4204 10.2799 15.4204 8.66317 15.407H7.85479C7.81437 15.407 7.77395 15.407 7.73353 15.3935L7.53144 15.3665L7.46407 15.0296C7.46407 14.9487 7.4506 14.8678 7.4506 14.787V13.1561C7.4506 11.9296 7.4506 10.7031 7.4506 9.47661C7.4506 9.16661 7.55838 8.95096 7.8009 8.76227C9.53892 7.44141 10.1991 5.20405 9.41766 3.16886C8.66317 1.16062 6.62874 -0.133279 4.51347 0.0149805C2.29042 0.176718 0.417665 1.87496 0.0673653 4.07189C0.0538922 4.13928 0.0404192 4.22015 0.0134731 4.28754L0 4.34145V5.44665L0.0538922 5.63535C0.0943114 5.79708 0.121257 5.94534 0.161677 6.10708C0.458084 7.19881 1.0509 8.07488 1.8997 8.73531C2.16916 8.924 2.29042 9.15313 2.29042 9.49008C2.27695 15.1644 2.29042 20.8521 2.29042 26.5264C2.29042 26.8634 2.18263 27.079 1.92665 27.2677C0.916168 28.0225 0.296407 29.0603 0.0673653 30.3407C0.0538922 30.4081 0.0404192 30.489 0.0134731 30.5564L0 30.5968L0.0269461 31.7829C0.0538922 31.8907 0.0808383 31.985 0.0943114 32.0794C0.538922 34.1415 2.06138 35.5837 4.17665 35.9341C4.24401 35.9476 4.2979 35.9745 4.3518 35.988H5.41617L5.63174 35.9476C5.79341 35.9206 5.94162 35.8802 6.08982 35.8398C8.07036 35.2467 9.26946 33.9663 9.63323 32.0524C9.99701 30.1385 9.39072 28.5346 7.81437 27.2542C7.55838 27.052 7.4506 26.8229 7.4506 26.5129C7.46407 25.1786 7.4506 23.8577 7.4506 22.5234V20.6095L7.81437 20.5826C7.90868 20.5826 7.97605 20.5691 8.05689 20.5691H9.63323C10.8862 20.5691 12.1527 20.5691 13.4057 20.5691C13.7695 20.5691 13.9581 20.7308 14.1063 20.906C14.4027 21.243 14.7395 21.5799 15.0898 21.8765C15.3189 22.0786 15.4132 22.2808 15.4132 22.5504C15.3997 23.8712 15.3997 25.1921 15.4132 26.5129C15.4132 26.8364 15.3054 27.052 15.0629 27.2273C13.4596 28.4403 12.759 30.4216 13.2844 32.295C13.8503 34.3033 15.1707 35.5163 17.2455 35.9206C17.3129 35.9341 17.3668 35.9611 17.4072 35.9745H18.5254C18.6467 35.9341 18.768 35.9072 18.9027 35.8802C19.1856 35.8128 19.4686 35.7454 19.7246 35.6376C21.4626 34.9367 22.5 33.6968 22.7829 31.9446C23.0928 30.0711 22.4731 28.4807 20.9371 27.2407C20.6811 27.0251 20.5734 26.8094 20.5734 26.4994C20.5868 25.1921 20.5868 23.8847 20.5734 22.5773C20.5734 22.1999 20.7485 22.0112 20.9237 21.836C21.2605 21.5395 21.5838 21.216 21.8802 20.8791C22.0823 20.65 22.2979 20.5421 22.5808 20.5421C22.5808 20.5421 22.5808 20.5421 22.5943 20.5421C24.0629 20.5556 25.5449 20.5421 27.0135 20.5421C30.3413 20.5421 32.9955 18.3452 33.6018 15.0835C33.6826 14.6522 33.6961 14.1939 33.6961 13.857C33.7096 12.3879 33.7096 10.9053 33.6961 9.43617C33.6961 9.20704 33.7365 8.95096 34.0329 8.70835C35.7844 7.44141 36.4446 5.20405 35.7036 3.19581ZM32.7395 7.52228C32.1467 7.84576 31.9446 8.23662 31.9581 8.95096C31.985 10.164 31.985 11.404 31.9716 12.6035V13.8839C31.9716 16.7143 29.8428 18.8439 27.0135 18.8439H26.3129C24.8039 18.8439 23.2814 18.8439 21.7725 18.8439H21.759C21.2874 18.8439 20.991 19.0191 20.7754 19.4369C20.479 20.0434 20.021 20.5017 19.4147 20.7982C19.0105 21.0004 18.8353 21.2969 18.8353 21.7956C18.8488 23.6421 18.8488 25.4482 18.8353 27.2542C18.8353 27.8203 19.024 28.1573 19.509 28.4133C20.8832 29.1546 21.476 30.7585 20.9237 32.2411C20.3847 33.6833 18.8892 34.5054 17.3802 34.1954C15.8847 33.8989 14.8069 32.5242 14.8877 31.0011C14.9416 29.8555 15.494 28.9659 16.4775 28.4268C16.976 28.1573 17.1781 27.8068 17.1647 27.2407C17.1377 25.4886 17.1512 23.8038 17.1647 21.7821C17.1647 21.2969 16.9895 21.0004 16.5719 20.7847C15.979 20.4882 15.521 20.03 15.2111 19.4234C15.009 19.0191 14.7126 18.8439 14.2275 18.8439H14.2141C13.3249 18.8574 12.4491 18.8574 11.5599 18.8439H6.79042C6.00898 18.8439 5.6991 19.1404 5.6991 19.9221V22.1999C5.6991 23.9116 5.6991 25.6099 5.6991 27.3081C5.6991 27.8338 5.87425 28.1438 6.33233 28.3864C7.61228 29.0738 8.24551 30.5294 7.88174 31.9311C7.51796 33.3059 6.27844 34.2628 4.8503 34.2628C4.83683 34.2628 4.83683 34.2628 4.82335 34.2628C3.43563 34.2494 2.20958 33.2924 1.83234 31.9446C1.45509 30.5698 2.07485 29.1007 3.28743 28.4538C3.83982 28.1707 4.04192 27.8068 4.04192 27.1733C4.02844 21.4182 4.01497 15.407 4.04192 8.76227C4.04192 8.18271 3.85329 7.85923 3.36826 7.60315C2.11527 6.92924 1.48204 5.48709 1.84581 4.09884C2.19611 2.72408 3.42216 1.75366 4.8503 1.75366H4.86377C6.26497 1.75366 7.50449 2.69712 7.88174 4.05841C8.27246 5.43318 7.65269 6.91577 6.42665 7.57619C5.9012 7.85923 5.6991 8.20966 5.6991 8.81618C5.71257 10.5144 5.71257 12.1992 5.71257 13.8974V16.0944C5.71257 16.8356 6.03593 17.1591 6.77695 17.1591H9.04042C10.765 17.1591 12.4895 17.1591 14.2006 17.1591C14.2006 17.1591 14.2006 17.1591 14.2141 17.1591C14.726 17.1591 15.0359 16.9704 15.2515 16.5391C15.5344 15.9596 15.979 15.5283 16.5584 15.2318C16.976 15.0161 17.1647 14.7061 17.1647 14.2074C17.1512 12.1587 17.1512 10.3527 17.1647 8.66792C17.1647 8.15575 16.9895 7.84576 16.518 7.58967C15.1437 6.84838 14.524 5.24448 15.0629 3.77537C15.5883 2.31974 17.0704 1.48409 18.5928 1.78061C20.1153 2.07713 21.1931 3.4519 21.1257 4.9884C21.0719 6.14752 20.506 7.03707 19.509 7.57619C19.0374 7.83228 18.8353 8.15575 18.8488 8.70835C18.8623 10.3931 18.8623 12.1587 18.8488 14.14C18.8488 14.6792 19.024 15.0026 19.4686 15.2183C20.0479 15.5013 20.479 15.9461 20.7754 16.5391C20.991 16.9704 21.3009 17.1591 21.7859 17.1456C22.8099 17.1456 23.8473 17.1456 24.8713 17.1456C25.5853 17.1456 26.3129 17.1456 27.0269 17.1456C28.9132 17.1456 30.2874 15.7709 30.2874 13.8705C30.2874 13.2505 30.2874 12.617 30.2874 11.997C30.2874 10.9053 30.2874 9.81356 30.3009 8.73531C30.3009 8.16923 30.1123 7.83228 29.6138 7.57619C28.3743 6.92925 27.7545 5.48709 28.0913 4.08537C28.4147 2.75103 29.6677 1.76713 31.0554 1.74018C32.4701 1.74018 33.7231 2.64321 34.1138 4.0045C34.518 5.39274 33.9386 6.87533 32.7395 7.52228Z" fill="#F36F20"/>
</g>
<defs>
<clipPath id="clip0_275_24481">
<rect width="36" height="36" fill="white"/>
</clipPath>
</defs>
</svg>
