<svg width="38" height="40" viewBox="0 0 38 40" fill="none" xmlns="http://www.w3.org/2000/svg">
<g clip-path="url(#clip0_1053_5008)">
<path d="M37.9784 22.9148C37.9784 22.893 37.9892 22.8713 37.9892 22.8441C37.9892 22.3007 37.9892 18.4427 37.9892 17.9047C37.9838 16.9212 37.9838 15.905 38.0001 14.9106C38.0164 14.0086 37.7121 13.2913 37.0384 12.6447C35.2835 10.971 33.5611 9.2811 31.5074 7.26512C31.4313 7.19448 31.3716 7.04233 31.3716 6.94995C31.3879 6.49894 31.3553 6.04792 31.2792 5.60778C30.8391 3.07558 28.8723 0.91832 26.3839 0.228214C26.0524 0.135838 25.7101 0.0706311 25.3678 0.0380276C22.4393 -0.271705 19.5814 1.48345 18.4024 4.29821C18.2666 4.62424 18.1797 4.96658 18.0927 5.30348C18.071 5.39586 18.0438 5.49367 18.0167 5.58604C16.9952 5.53714 16.2943 6.09683 15.7945 6.60218C12.5237 9.90056 9.23658 13.1935 5.94948 16.481L2.23315 20.2032C1.84739 20.5836 1.46706 20.964 1.09761 21.3552C-0.380233 22.9419 -0.363933 25.2296 1.13564 26.8C1.51596 27.2021 4.15651 29.8376 4.91716 30.5929C4.9226 30.5983 4.92803 30.6092 4.9389 30.6146L6.22657 31.9079C7.51425 33.2011 8.80192 34.4944 10.095 35.7822C11.763 37.4396 14.1048 37.445 15.7891 35.7877C16.3378 35.2443 16.8866 34.7009 17.419 34.1466C17.419 34.2118 17.419 34.2716 17.419 34.3314C17.4136 34.8694 17.4082 35.4019 17.4299 35.9398C17.4788 37.32 18.1199 38.4231 19.2935 39.1295C19.6086 39.3197 19.9618 39.4393 20.2986 39.5534C20.4453 39.6023 20.592 39.6512 20.7387 39.711L34.5826 39.7273L34.7184 39.6892L34.751 39.6621C36.9297 39.1078 37.9947 37.733 37.9947 35.4671V23.306V23.2082C37.9947 23.1104 37.9892 23.0126 37.9784 22.9148ZM24.2975 1.7171C26.7261 1.55952 28.8505 3.09188 29.4699 5.31435C29.4265 5.26544 29.383 5.22197 29.3395 5.1785C28.3507 4.25474 26.9652 4.27104 26.047 5.2111C25.683 5.58604 25.3189 5.72189 24.7865 5.70016C23.602 5.65125 22.3959 5.63495 21.2331 5.62408C20.7768 5.61865 20.3204 5.61321 19.8585 5.60778H19.7662C19.9509 3.77655 22.1351 1.85839 24.2975 1.7171ZM17.4082 31.5438C17.4082 31.6633 17.3375 31.8318 17.256 31.9133C16.5769 32.6143 15.8923 33.3044 15.2023 33.9891L14.6752 34.5107C13.5723 35.6138 12.3064 35.6084 11.198 34.4998L6.2809 29.5713C6.27547 29.5659 6.27004 29.555 6.25917 29.5496C6.02011 29.305 3.11333 26.3979 2.86884 26.1534L2.47764 25.7621C1.42903 24.708 1.4236 23.4038 2.46135 22.3605L8.18253 16.6277C11.1762 13.6228 14.1754 10.6233 17.1691 7.61832C17.4136 7.36836 17.6472 7.26512 17.9841 7.27599C19.4728 7.30316 20.9561 7.32489 22.4448 7.34663L23.8085 7.36293C23.037 8.11281 22.26 8.86269 21.4885 9.61257C20.4127 10.6559 19.3424 11.6992 18.2612 12.7371C17.6744 13.3022 17.3919 13.9706 17.4027 14.7693C17.4136 15.8127 17.4136 22.029 17.4082 23.0723V23.2788C17.4082 23.3006 17.4082 23.3223 17.4082 23.344V24.1917V24.5558C17.4082 24.5721 17.4082 24.583 17.4082 24.5938V25.1427C17.419 27.2891 17.419 29.4137 17.4082 31.5438ZM36.2995 35.6029C36.2995 37.1299 35.3867 38.0373 33.8545 38.0373C32.6484 38.0428 31.4531 38.0373 30.2523 38.0319C27.4162 38.0264 24.4822 38.0156 21.6026 38.0536C20.8854 38.0591 20.2443 37.8145 19.7825 37.3526C19.3207 36.8908 19.0816 36.2659 19.0925 35.5486C19.1305 32.6143 19.1196 29.6365 19.1142 26.7511C19.1142 25.8817 19.1088 25.0068 19.1088 24.1265V23.9255C19.1088 22.5996 19.1142 16.0898 19.1033 14.7585C19.1033 14.4379 19.1848 14.2151 19.3804 14.0249C20.6355 12.8077 21.896 11.5851 23.1511 10.3624C24.4877 9.06374 25.8242 7.7596 27.1662 6.46634C27.5303 6.11313 27.8726 6.11313 28.2474 6.4609C28.6821 6.86844 29.1059 7.28686 29.5243 7.7107C29.546 7.73244 29.5732 7.78134 29.5786 7.75417C29.4156 8.58556 29.0624 9.33 28.53 9.96034C28.4756 9.9386 28.4322 9.91687 28.3833 9.90056C27.5466 9.61257 26.6283 9.8897 26.0959 10.5961C25.5852 11.2753 25.558 12.2045 26.0253 12.9164C26.5142 13.6608 27.4162 13.9923 28.2637 13.7532C29.0624 13.525 29.8176 12.7534 29.6927 11.8568C29.6275 11.3677 29.8176 11.0852 30.0839 10.6939L30.1762 10.5581C30.3936 10.2266 30.5729 9.87339 30.7413 9.53106C30.7956 9.41695 30.8554 9.30283 30.9097 9.19416C30.926 9.16155 30.9423 9.12895 30.9532 9.09635C30.9532 9.09635 30.9532 9.09635 30.9586 9.10178L32.3115 10.4168C33.4959 11.5688 34.6749 12.7208 35.8703 13.8619C36.1854 14.1662 36.3158 14.4759 36.3104 14.9052C36.2886 16.3669 36.2886 21.2139 36.3158 22.7789C36.3158 22.8115 36.3267 22.855 36.3321 22.8876C36.3158 23.018 36.3049 23.1484 36.3049 23.2843L36.2995 35.6029ZM28.0355 11.8133C28.0355 11.8948 27.9975 11.9763 27.9323 12.0361C27.8671 12.1013 27.7802 12.1285 27.6878 12.1285C27.6009 12.123 27.5194 12.085 27.4542 12.0198C27.3944 11.9546 27.3673 11.8731 27.3673 11.7916C27.3781 11.6177 27.5194 11.4873 27.6987 11.4873C27.7856 11.4655 27.878 11.5253 27.9432 11.5905C28.003 11.6503 28.0355 11.7264 28.0355 11.8133Z" fill="#F36F20"/>
<path d="M24.8571 27.8976L24.906 27.9302C25.0038 27.9955 25.1125 28.077 25.2483 28.1204C25.6558 28.2671 26.0687 28.4139 26.4925 28.5606L26.8131 28.6747V28.8594C26.8131 29.18 26.8077 29.5278 26.8185 29.8702C26.8294 30.3755 27.1662 30.7124 27.6498 30.7124C27.6552 30.7124 27.6607 30.7124 27.6607 30.7124C28.1551 30.707 28.4811 30.3538 28.4974 29.8104C28.5083 29.4626 28.5028 29.1094 28.5028 28.7616V28.528C28.5952 28.5008 28.6767 28.4791 28.7528 28.4519C30.0513 28.0118 30.9749 26.7185 30.9912 25.3057C31.0075 23.9744 30.2686 22.9582 28.9049 22.4366C28.8451 22.4148 28.7854 22.3931 28.7256 22.3714C28.6387 22.3388 28.5463 22.3116 28.4648 22.2736L28.0301 22.0725C27.59 21.8714 27.1336 21.6595 26.7153 21.415C26.5849 21.3389 26.4382 21.1161 26.4002 20.9259C26.3404 20.6379 26.4002 20.3445 26.5632 20.1C26.7425 19.8392 27.025 19.6544 27.3401 19.5946C27.9867 19.4751 28.6332 19.6218 29.3776 20.0457C29.8937 20.3445 30.3936 20.2576 30.6435 19.8229C30.7685 19.6109 30.8011 19.3773 30.7359 19.1545C30.6652 18.9154 30.4805 18.7143 30.2197 18.5839C29.8122 18.3829 29.3884 18.2144 28.9429 18.0297C28.8017 17.9699 28.6495 17.9101 28.5028 17.8504V17.6873C28.5083 17.383 28.5083 17.0461 28.4974 16.7038C28.4757 16.2147 28.1171 15.8507 27.6552 15.8507H27.6498C27.188 15.8561 26.8403 16.2202 26.824 16.7147C26.8131 17.0787 26.8022 17.4645 26.824 17.8449C26.8294 17.9264 26.8185 17.9536 26.8185 17.9536C26.8185 17.9536 26.7968 17.9753 26.6881 18.0079C25.2864 18.4155 24.4225 19.9207 24.7648 21.3715C24.9278 22.0725 25.319 22.5996 25.8949 22.893C26.6936 23.3006 27.5031 23.6483 28.3344 24.0015C28.9103 24.2461 29.1928 24.5341 29.2798 24.9688C29.3721 25.4307 29.258 25.9088 28.9646 26.2838C28.6604 26.6696 28.204 26.9032 27.7096 26.925C26.9055 26.963 26.2915 26.8109 25.7699 26.4577C25.558 26.3109 25.3135 26.2566 25.0799 26.3055C24.8626 26.3544 24.6724 26.4903 24.5474 26.6913C24.2921 27.1206 24.417 27.5988 24.8571 27.8976Z" fill="#F36F20"/>
<path d="M32.2192 34.0651C32.1432 34.0597 32.0671 34.0597 31.9856 34.0651H23.776H23.6021C23.45 34.0651 23.2979 34.0651 23.1457 34.0705C22.6513 34.1031 22.3036 34.4672 22.3145 34.9345C22.3253 35.3801 22.6622 35.717 23.1349 35.7496C23.2164 35.7551 23.2979 35.7551 23.3794 35.7551H23.4609H30.3774C30.6001 35.7551 30.8175 35.7551 31.0402 35.7551C31.426 35.7551 31.8117 35.7551 32.1975 35.7496C32.4583 35.7496 32.6919 35.6518 32.8549 35.4779C33.0071 35.3203 33.0885 35.1084 33.0777 34.8802C33.0723 34.4292 32.7191 34.0923 32.2192 34.0651Z" fill="#F36F20"/>
<path d="M23.0641 33.1631C23.1836 33.1794 23.3031 33.1794 23.4824 33.1794H29.133H31.9583C32.3875 33.1794 32.6863 33.087 32.8765 32.8914C33.0177 32.7447 33.0884 32.5545 33.0884 32.3263C33.0829 32.0111 32.9308 31.4895 31.9474 31.484H23.4335C23.3031 31.484 23.1727 31.484 23.0423 31.5058C22.5859 31.5819 22.3088 31.9133 22.3251 32.3643C22.3469 32.8045 22.6294 33.1088 23.0641 33.1631Z" fill="#F36F20"/>
<path d="M9.72554 21.904C9.57885 21.7573 9.43215 21.6106 9.28002 21.4693L9.23655 21.4259C9.06812 21.2628 8.8182 21.0238 8.51393 21.0564C8.18794 21.0998 7.84021 21.6161 7.83478 21.6215C7.64462 21.9421 7.72068 22.2844 8.06841 22.6268L9.73641 24.295C11.2631 25.8273 12.7953 27.3597 14.3221 28.8921C14.5991 29.1692 14.8599 29.2344 15.0284 29.2344H15.0338C15.2457 29.2344 15.4413 29.142 15.6097 28.9736C15.9575 28.6149 15.9249 28.115 15.5282 27.7183L9.72554 21.904Z" fill="#F36F20"/>
<path d="M10.8666 26.6696C9.72562 25.523 8.57921 24.3765 7.4328 23.2354C7.23177 23.0343 6.98728 22.9039 6.74821 22.9311C6.53088 22.9365 6.32442 23.0289 6.16686 23.1973C5.83543 23.5505 5.8626 24.045 6.23749 24.42L12.051 30.2451C12.2032 30.3972 12.3553 30.5494 12.5129 30.6961L12.5618 30.7396C12.7085 30.8754 12.9095 31.0656 13.2083 31.0656L13.279 31.0602C13.6375 31.0276 13.9038 30.7124 13.9961 30.4353C14.0994 30.1364 13.9961 29.8104 13.7245 29.5333L10.8666 26.6696Z" fill="#F36F20"/>
</g>
<defs>
<clipPath id="clip0_1053_5008">
<rect width="38" height="39.7273" fill="white"/>
</clipPath>
</defs>
</svg>
