<svg width="47" height="30" viewBox="0 0 47 30" fill="none" xmlns="http://www.w3.org/2000/svg">
<g clip-path="url(#clip0_275_24483)">
<path d="M44.8727 12.2364C44.7183 12.0932 44.4387 12.0264 44.2113 12.0158C43.5607 11.9865 42.9066 12.0029 42.2548 12.0064C41.49 12.0099 41.2274 12.2657 41.2237 13.02C41.2188 13.8248 41.2225 14.6307 41.2225 15.4354C41.2225 15.7803 41.2225 16.1241 41.2225 16.4725H39.6685C39.6685 16.2942 39.6685 16.137 39.6685 15.9798C39.6685 14.4723 39.6709 12.9637 39.6673 11.4562C39.6661 10.7594 39.4047 10.5119 38.6751 10.5095C37.2184 10.506 35.7617 10.5002 34.3062 10.5154C34.0375 10.5177 33.7882 10.3887 33.6411 10.1717C32.824 8.95985 31.9777 7.76563 31.1618 6.55263C30.904 6.17019 30.5927 5.99071 30.1124 6.00126C29.1117 6.02355 28.1098 6.0083 27.109 6.0083C26.6579 6.0083 26.2056 6.0083 25.7362 6.0083V4.50672C25.9527 4.50672 26.1326 4.50672 26.3126 4.50672C27.8447 4.50672 29.3768 4.51141 30.9101 4.50437C31.6287 4.50085 31.9084 4.22869 31.9132 3.54829C31.9193 2.68488 31.9205 1.82029 31.9132 0.956881C31.9084 0.283515 31.6178 0.00314123 30.9052 0.00196812C25.8834 -0.00155122 20.8615 -0.00155122 15.8397 0.00196812C15.1016 0.00196812 14.8195 0.281169 14.8146 0.985036C14.8098 1.80504 14.8122 2.62505 14.8134 3.44505C14.8146 4.25098 15.0676 4.5032 15.8932 4.50555C17.4253 4.51024 18.9574 4.50672 20.4907 4.50789C20.6524 4.50789 20.8153 4.5208 20.988 4.52783V6.0083C19.5094 6.0083 18.0697 6.01886 16.6313 6.00244C16.157 5.99657 15.836 6.15494 15.577 6.54324C14.7782 7.73395 13.9404 8.90237 13.1439 10.0943C12.9409 10.3981 12.7317 10.5271 12.3463 10.5189C11.1632 10.4919 9.98006 10.506 8.79694 10.5107C8.11115 10.5131 7.83757 10.777 7.82419 11.4445C7.81446 11.9572 7.82176 12.4698 7.82176 12.9813C7.82176 13.8869 7.82176 14.7914 7.82176 15.7158H6.26535C6.26535 15.5234 6.26535 15.3639 6.26535 15.2055C6.26535 13.9608 6.26778 12.7173 6.26414 11.4727C6.2617 10.7641 6.00636 10.5131 5.28773 10.5095C4.37699 10.5048 3.46747 10.5189 2.55673 10.5037C2.1506 10.4966 1.86485 10.6398 1.64598 10.967C1.20095 11.6299 0.725516 12.2751 0.296288 12.9461C0.161319 13.1573 0.0993057 13.4282 0.0628275 13.6805C-0.16577 15.236 0.216036 16.6168 1.30917 17.8157C1.5025 18.028 1.59127 18.3952 1.59492 18.6932C1.61923 20.6112 1.60707 22.5281 1.60829 24.4461C1.60951 25.2344 1.85634 25.4831 2.654 25.489C3.51854 25.4949 4.38307 25.4949 5.24882 25.489C6.01 25.4831 6.2617 25.2403 6.26414 24.5142C6.26778 23.2554 6.26414 21.9967 6.26657 20.7367C6.26657 20.5831 6.27994 20.4305 6.28724 20.2816H7.81933C7.81933 20.4693 7.81933 20.6265 7.81933 20.7848C7.81933 22.0002 7.81689 23.2155 7.82054 24.4297C7.82297 25.238 8.07224 25.4855 8.89908 25.489C10.081 25.4937 11.2617 25.4996 12.4423 25.4831C12.6977 25.4796 12.936 25.6016 13.0746 25.8081C13.9027 27.0328 14.7575 28.2423 15.5856 29.467C15.8348 29.8366 16.1473 29.9996 16.6021 29.9996C23.9452 29.9938 31.2882 29.9961 38.6313 29.9938C39.2028 29.9938 39.6661 29.5468 39.6673 28.9954C39.6697 27.0011 39.6685 25.008 39.6685 23.0137C39.6685 22.8565 39.6685 22.6993 39.6685 22.5175H41.2225C41.2225 22.7076 41.2225 22.8659 41.2225 23.0255C41.2225 24.5188 41.2188 26.0122 41.2249 27.5056C41.2274 28.2141 41.5107 28.484 42.2451 28.4933C42.8664 28.5016 43.4902 28.5098 44.1104 28.4875C44.3426 28.4793 44.6417 28.4499 44.7901 28.3115C45.4394 27.7038 46.0449 27.0528 46.6663 26.4169V14.0324C46.0717 13.4294 45.4917 12.8135 44.8727 12.2364ZM4.68827 23.9593H3.15862C3.15862 23.8056 3.15862 23.6531 3.15862 23.4994C3.15862 21.7444 3.17078 19.9895 3.14646 18.2357C3.14281 17.926 2.9969 17.5963 2.84855 17.3195C2.6844 17.0109 2.47283 16.7305 2.24423 16.4631C1.82473 15.9751 1.60343 15.3791 1.58154 14.748C1.55965 14.084 1.72988 13.5784 2.09467 13.02C2.30867 12.6939 2.48134 12.2528 2.85585 12.0639C3.26197 11.8586 3.86143 12.0088 4.37699 12.0064C4.46576 12.0053 4.55574 12.0146 4.68949 12.0205V23.9593H4.68827ZM7.77798 18.7237H6.2921V17.2854H7.77798V18.7237ZM16.3881 2.96056V1.53288H30.3264V2.96173H16.3881V2.96056ZM24.1142 4.50907V5.97311H22.5857C22.5857 5.47806 22.5675 5.00646 22.6137 4.53605C23.1037 4.49147 23.5913 4.50907 24.1142 4.50907ZM34.9835 28.4957C34.7853 28.4957 34.6211 28.4957 34.457 28.4957C28.7384 28.4957 23.0186 28.4922 17.3 28.5039C16.9207 28.5051 16.7018 28.396 16.4963 28.0863C15.7278 26.9284 14.9071 25.8034 14.1447 24.642C13.8334 24.1681 13.4601 23.9593 12.8764 23.978C11.8915 24.0097 10.9042 23.9874 9.91804 23.9874C9.75511 23.9874 9.59217 23.9874 9.40248 23.9874V12.0053C10.3424 12.0053 11.2629 12.0076 12.1833 12.0053C13.9051 12.0006 13.561 12.1484 14.5046 10.804C15.2013 9.81153 15.8908 8.81204 16.568 7.80668C16.7176 7.58379 16.8817 7.50285 17.1566 7.50285C21.2981 7.51106 25.4396 7.51106 29.5811 7.50285C29.8595 7.50168 30.0164 7.59435 30.1647 7.81372C30.9855 9.02555 31.8342 10.221 32.6477 11.4375C32.9261 11.8539 33.2678 12.044 33.7785 12.0099C34.1688 11.9841 34.5628 12.0053 34.9859 12.0053V28.4957H34.9835ZM38.0902 28.4699H36.5983V12.0264H38.0902V28.4699ZM41.197 20.9643H39.7026V18.0233H41.197V20.9643ZM45.1062 25.618C45.105 25.7964 44.9822 25.9852 44.8813 26.1483C44.8059 26.2703 44.6502 26.3442 44.5688 26.4639C44.131 27.1079 43.4866 27.0305 42.802 26.9613V13.5502C43.838 13.393 44.6113 13.7286 45.0624 14.531C45.1159 14.6248 45.1135 14.7562 45.1135 14.87C45.1159 18.4527 45.1184 22.0354 45.1062 25.618Z" fill="#F36F20"/>
<path d="M10.9604 22.4676C11.4699 22.4676 11.9502 22.4676 12.4512 22.4676C12.4512 19.4433 12.4512 16.4507 12.4512 13.4405C11.9441 13.4405 11.4772 13.4405 10.9604 13.4405C10.9604 16.48 10.9604 19.4586 10.9604 22.4676Z" fill="#F36F20"/>
</g>
<defs>
<clipPath id="clip0_275_24483">
<rect width="46.6667" height="30" fill="white"/>
</clipPath>
</defs>
</svg>
