<svg width="31" height="40" viewBox="0 0 31 40" fill="none" xmlns="http://www.w3.org/2000/svg">
<g clip-path="url(#clip0_275_24473)">
<path d="M26.7448 14.5485C26.4787 14.5485 26.2498 14.5496 26.0199 14.5485C24.9596 14.5393 24.2699 13.7905 24.2658 12.633C24.2616 11.5825 24.2647 10.5321 24.2647 9.48159C24.2647 8.10334 24.6582 7.55477 25.9102 7.2361C25.9102 6.89808 25.9091 6.54641 25.9102 6.19473C25.9133 4.8529 26.3306 3.69886 27.2066 2.75423C27.4189 2.52547 27.6188 2.28191 27.8414 2.06681C28.178 1.74245 28.6595 1.76066 28.966 2.08843C29.2829 2.42759 29.3108 2.92836 29.0157 3.31873C28.8593 3.52586 28.6854 3.71934 28.5042 3.9003C27.8269 4.57406 27.5152 5.40374 27.5732 6.40642C27.5888 6.67387 27.5753 6.94247 27.5753 7.28618C27.8673 7.28618 28.1314 7.28732 28.3954 7.28618C28.8231 7.28504 29.1016 7.50925 29.2373 7.95425C29.6619 9.35185 30.102 10.7449 30.5058 12.1505C30.862 13.391 30.0875 14.5246 28.9018 14.5485C28.763 14.5507 28.6243 14.5485 28.4441 14.5485C28.4441 14.7533 28.4441 14.9195 28.4441 15.0856C28.4441 20.3107 28.4462 25.5358 28.442 30.7597C28.441 32.3724 27.4086 33.5913 26.0334 33.6289C24.6189 33.6676 23.4902 32.4691 23.486 30.8837C23.4767 27.3772 23.4829 23.8696 23.4819 20.3631C23.4819 19.3797 23.2189 19.0861 22.3356 19.085C22.0788 19.085 21.8209 19.085 21.4947 19.085C21.4947 19.2898 21.4947 19.4674 21.4947 19.6438C21.4947 25.4504 21.4958 31.2582 21.4937 37.0648C21.4927 38.4988 20.8227 39.547 19.6784 39.8839C19.4082 39.9636 19.1182 39.9943 18.8366 39.9954C13.4498 40.0023 8.06303 40.0023 2.67626 39.9989C1.04636 39.9977 0.00565945 38.8539 0.00565945 37.0739C0.00462393 25.686 0.00462393 14.2992 0.00565945 2.91242C0.00565945 1.15632 1.04843 0.00455244 2.65141 0.00341433C8.05163 -0.00113811 13.4508 -0.00113811 18.8511 0.00341433C20.4613 0.00455244 21.4916 1.13811 21.4937 2.90787C21.4978 7.50811 21.4958 12.1083 21.4958 16.7086C21.4958 16.877 21.4958 17.0443 21.4958 17.2742C21.8416 17.2742 22.1585 17.2731 22.4764 17.2742C24.0462 17.2811 25.09 18.4249 25.0942 20.1707C25.1025 23.6067 25.0963 27.0426 25.0973 30.4786C25.0973 30.6345 25.0942 30.7916 25.1045 30.9463C25.1398 31.4437 25.4753 31.8033 25.906 31.8113C26.3306 31.8204 26.6899 31.463 26.7396 30.9748C26.75 30.8769 26.7458 30.7768 26.7458 30.6766C26.7458 25.4379 26.7458 20.198 26.7458 14.9593C26.7448 14.8364 26.7448 14.7123 26.7448 14.5485ZM19.8483 20.0137C19.8483 14.3766 19.8483 8.73954 19.8483 3.10362C19.8483 2.09754 19.6132 1.83349 18.7113 1.83349C13.4022 1.83349 8.09202 1.83349 2.78292 1.83349C1.90687 1.83349 1.65317 2.11233 1.65317 3.07631C1.65317 14.3641 1.65317 25.6519 1.65317 36.9396C1.65317 37.8808 1.90998 38.1676 2.75703 38.1676C8.09202 38.1688 13.428 38.1688 18.763 38.1676C19.5894 38.1676 19.8483 37.8808 19.8483 36.9681C19.8483 31.3162 19.8483 25.6655 19.8483 20.0137ZM25.9972 9.09577C25.9972 10.3454 25.9972 11.5279 25.9972 12.7172C26.9819 12.7172 27.9325 12.7172 28.9349 12.7172C28.5766 11.5302 28.2328 10.3773 27.8756 9.22779C27.8559 9.1652 27.7379 9.1026 27.6643 9.10146C27.1124 9.09122 26.5605 9.09577 25.9972 9.09577Z" fill="#F36F20"/>
<path d="M10.7757 3.64261C12.8809 3.64261 14.9851 3.64261 17.0903 3.64261C17.9084 3.64261 18.1952 3.94876 18.1952 4.83193C18.1963 8.89044 18.1963 12.9501 18.1952 17.0086C18.1952 17.8644 17.897 18.1888 17.1131 18.1888C12.8644 18.1899 8.61666 18.1899 4.36792 18.1888C3.59646 18.1888 3.31376 17.8781 3.31376 17.0348C3.31273 12.9478 3.31273 8.85971 3.31376 4.77275C3.31376 3.94762 3.59439 3.64375 4.34514 3.64375C6.48867 3.64261 8.6322 3.64261 10.7757 3.64261ZM16.5001 16.3371C16.5001 12.6883 16.5001 9.09188 16.5001 5.48179C12.6438 5.48179 8.81652 5.48179 4.99131 5.48179C4.99131 9.1192 4.99131 12.7293 4.99131 16.3371C8.84137 16.3371 12.6604 16.3371 16.5001 16.3371Z" fill="#F36F20"/>
<path d="M10.775 27.2626C8.60453 27.2626 6.43407 27.2649 4.26466 27.2615C3.68994 27.2603 3.3534 26.9542 3.32233 26.4318C3.2923 25.9276 3.59985 25.5179 4.05859 25.461C4.18596 25.445 4.31643 25.453 4.44587 25.453C8.64387 25.453 12.8429 25.453 17.0409 25.453C17.131 25.453 17.2221 25.4507 17.3122 25.4541C17.8341 25.4746 18.1976 25.8559 18.1893 26.3749C18.181 26.8779 17.831 27.2546 17.3246 27.2581C15.7103 27.2683 14.0949 27.2626 12.4805 27.2638C11.912 27.2638 11.3435 27.2638 10.775 27.2626Z" fill="#F36F20"/>
<path d="M5.38685 21.8081C4.97471 21.8081 4.56154 21.8195 4.15044 21.8047C3.64096 21.7865 3.31581 21.4223 3.31788 20.901C3.32099 20.39 3.66167 20.0122 4.16286 20.0042C4.97471 19.9917 5.78656 19.9906 6.59737 20.0053C7.08717 20.0133 7.44028 20.4151 7.43718 20.9147C7.43407 21.4177 7.08717 21.7899 6.58391 21.8058C6.18627 21.8183 5.78656 21.8081 5.38685 21.8081Z" fill="#F36F20"/>
<path d="M16.4603 20.0014C16.86 20.0014 17.2598 19.9923 17.6584 20.0048C18.1524 20.0207 18.5096 20.4054 18.5138 20.9027C18.5179 21.399 18.1627 21.7961 17.6688 21.8053C16.8569 21.8189 16.0451 21.8189 15.2332 21.8053C14.7227 21.7973 14.3903 21.4285 14.3872 20.9141C14.3851 20.3872 14.7362 20.0207 15.2622 20.0014C15.2881 20.0002 15.314 20.0014 15.3399 20.0014C15.7127 20.0002 16.0865 20.0002 16.4603 20.0014Z" fill="#F36F20"/>
<path d="M5.3718 24.533C4.95966 24.533 4.54649 24.5455 4.13538 24.5296C3.64662 24.5103 3.32768 24.154 3.32043 23.651C3.31318 23.1354 3.64765 22.7416 4.14263 22.7325C4.96691 22.7177 5.79222 22.7166 6.61649 22.7325C7.08766 22.7416 7.43041 23.1331 7.43973 23.618C7.44905 24.1222 7.10319 24.5125 6.60821 24.5319C6.19607 24.5455 5.78393 24.5342 5.3718 24.533Z" fill="#F36F20"/>
<path d="M16.4718 22.7268C16.858 22.7268 17.2453 22.7189 17.6315 22.728C18.1503 22.7405 18.5169 23.1275 18.5138 23.6396C18.5097 24.137 18.1555 24.5217 17.6574 24.5296C16.8456 24.5422 16.0337 24.5433 15.2219 24.5285C14.7155 24.5194 14.3831 24.1404 14.3872 23.6248C14.3904 23.1149 14.7341 22.7428 15.2353 22.728C15.6464 22.7177 16.0596 22.728 16.4718 22.7268Z" fill="#F36F20"/>
</g>
<defs>
<clipPath id="clip0_275_24473">
<rect width="30.5882" height="40" fill="white"/>
</clipPath>
</defs>
</svg>
