<svg width="36" height="36" viewBox="0 0 36 36" fill="none" xmlns="http://www.w3.org/2000/svg">
<g clip-path="url(#clip0_275_24498)">
<path d="M0 31.9222C0 23.579 0 15.2348 0 6.89157C0.020625 6.83803 0.0496875 6.78543 0.06 6.73002C0.478125 4.39601 2.3475 2.82091 4.71375 2.81434C5.65031 2.81152 6.58781 2.81434 7.52437 2.81434C7.63594 2.81434 7.7475 2.81434 7.87594 2.81434C7.87594 2.22544 7.87312 1.68725 7.87687 1.15001C7.88062 0.687904 8.085 0.337569 8.49656 0.12624C9.23906 -0.253211 10.0988 0.269944 10.1213 1.12089C10.1362 1.67786 10.1241 2.23577 10.1241 2.78992C15.3994 2.78992 20.6269 2.78992 25.8488 2.78992C25.86 2.7439 25.8703 2.72229 25.8703 2.69975C25.8722 2.2198 25.8722 1.73985 25.8741 1.2599C25.8769 0.512267 26.3316 0.00413956 26.9963 0.00320032C27.6591 0.00226108 28.1203 0.513206 28.1231 1.25708C28.125 1.76803 28.1231 2.27897 28.1231 2.81528C29.2528 2.81528 30.3403 2.80588 31.4269 2.81716C33.5325 2.83782 35.3681 4.30866 35.8622 6.35432C35.9053 6.53372 35.9522 6.71311 35.9981 6.89251C35.9981 15.2358 35.9981 23.5799 35.9981 31.9232C35.9775 31.9758 35.9475 32.0274 35.9381 32.0819C35.6231 33.8157 34.6425 35.017 33.0206 35.6858C32.67 35.8304 32.2884 35.898 31.9209 36.0014C22.6397 36.0014 13.3584 36.0014 4.07719 36.0014C4.0125 35.9797 3.94969 35.9497 3.88312 35.9365C1.98375 35.5571 0.75 34.4375 0.166875 32.5957C0.0984375 32.375 0.0553125 32.1467 0 31.9222ZM2.25 12.3833C2.25 12.5289 2.25 12.6435 2.25 12.758C2.25 18.8978 2.24906 25.0386 2.25 31.1784C2.25 32.7478 3.25031 33.7509 4.81687 33.7509C13.605 33.7519 22.3941 33.7519 31.1822 33.7509C32.7487 33.7509 33.7481 32.7488 33.7491 31.1784C33.75 25.0386 33.7491 18.8978 33.7491 12.758C33.7491 12.635 33.7491 12.5129 33.7491 12.3842C23.2312 12.3833 12.7678 12.3833 2.25 12.3833ZM7.875 5.06475C6.76781 5.06475 5.70375 5.0563 4.63969 5.06663C3.29906 5.07978 2.26688 6.11858 2.25187 7.46075C2.2425 8.25722 2.24906 9.05369 2.25094 9.85017C2.25094 9.93845 2.26781 10.0267 2.27437 10.0981C12.7819 10.0981 23.2594 10.0981 33.7481 10.0981C33.7481 9.19176 33.7584 8.31357 33.7463 7.43633C33.7275 6.11482 32.6925 5.08354 31.3697 5.06663C30.4912 5.05536 29.6128 5.06381 28.7344 5.06381C28.5394 5.06381 28.3444 5.06381 28.125 5.06381C28.125 5.43199 28.1269 5.75791 28.125 6.08382C28.1194 6.8014 27.6581 7.30859 27.0075 7.31235C26.3559 7.31704 25.8816 6.80798 25.8759 6.09791C25.8731 5.76166 25.875 5.42636 25.875 5.08635C20.6053 5.08635 15.3769 5.08635 10.125 5.08635C10.125 5.45829 10.1306 5.80863 10.1241 6.15802C10.1119 6.81737 9.62906 7.31047 9.00375 7.31235C8.37844 7.31422 7.89 6.81925 7.87687 6.1646C7.86937 5.81426 7.875 5.46393 7.875 5.06475Z" fill="#F36F20"/>
<rect x="8" y="16" width="2.5" height="2.5" rx="0.5" fill="#F36F20"/>
<rect x="8" y="21" width="2.5" height="2.5" rx="0.5" fill="#F36F20"/>
<rect x="8" y="26" width="2.5" height="2.5" rx="0.5" fill="#F36F20"/>
<rect x="14" y="16" width="2.5" height="2.5" rx="0.5" fill="#F36F20"/>
<rect x="14" y="21" width="2.5" height="2.5" rx="0.5" fill="#F36F20"/>
<rect x="14" y="26" width="2.5" height="2.5" rx="0.5" fill="#F36F20"/>
<rect x="20" y="16" width="2.5" height="2.5" rx="0.5" fill="#F36F20"/>
<rect x="20" y="21" width="2.5" height="2.5" rx="0.5" fill="#F36F20"/>
<rect x="26" y="16" width="2.5" height="2.5" rx="0.5" fill="#F36F20"/>
<rect x="26" y="21" width="2.5" height="2.5" rx="0.5" fill="#F36F20"/>
</g>
<defs>
<clipPath id="clip0_275_24498">
<rect width="36" height="36" fill="white"/>
</clipPath>
</defs>
</svg>
