<svg width="16" height="15" viewBox="0 0 16 15" fill="none" xmlns="http://www.w3.org/2000/svg">
<path d="M6.29146 8.65564C7.21923 9.59681 8.34181 10.3235 9.58035 10.7845L11.2559 9.45119C11.3056 9.41698 11.3645 9.39867 11.4248 9.39867C11.4851 9.39867 11.544 9.41698 11.5937 9.45119L14.7048 11.4556C14.8229 11.5266 14.9229 11.6241 14.9968 11.7404C15.0708 11.8567 15.1167 11.9886 15.1309 12.1257C15.1452 12.2628 15.1273 12.4013 15.0788 12.5303C15.0303 12.6593 14.9525 12.7752 14.8515 12.869L13.3937 14.309C13.1849 14.5153 12.9283 14.6666 12.6468 14.7496C12.3653 14.8326 12.0676 14.8446 11.7803 14.7845C8.91467 14.1927 6.2733 12.8065 4.15813 10.7845C2.0899 8.74242 0.658693 6.14402 0.038127 3.30453C-0.023177 3.0217 -0.010382 2.72783 0.0752719 2.45141C0.160926 2.17498 0.316534 1.92536 0.527016 1.72675L2.03813 0.268973C2.13164 0.172878 2.24568 0.0991837 2.3717 0.0534072C2.49773 0.00763073 2.63248 -0.00904153 2.76587 0.00463885C2.89925 0.0183192 3.02781 0.0619977 3.14192 0.132404C3.25603 0.20281 3.35274 0.298119 3.42479 0.411195L5.4959 3.48231C5.53163 3.53053 5.55091 3.58896 5.55091 3.64897C5.55091 3.70899 5.53163 3.76741 5.4959 3.81564L4.13146 5.45564C4.60505 6.66939 5.3429 7.76249 6.29146 8.65564Z" fill="#F36F20"/>
</svg>
